<?xml version="1.0" encoding="utf-8"?>
<!-- Generator: Adobe Illustrator 24.0.1, SVG Export Plug-In . SVG Version: 6.00 Build 0)  -->
<svg version="1.1" id="Capa_1" xmlns="http://www.w3.org/2000/svg" xmlns:xlink="http://www.w3.org/1999/xlink" x="0px" y="0px"
	 viewBox="0 0 160 160" style="enable-background:new 0 0 160 160;" xml:space="preserve">
<style type="text/css">
	.st0{fill:none;stroke:#FB2626;stroke-width:3;stroke-miterlimit:10;}
	.st1{fill:none;stroke:#707070;stroke-width:3;stroke-miterlimit:10;}
	.st2{fill:#FB2626;}
</style>
<g id="Grupo_468" transform="translate(542 -4354)">
	<g id="Grupo_332" transform="translate(-1180 2054)">
		<g id="Grupo_331" transform="translate(-418.13 1819.689)">
			<path id="Trazado_210" class="st0" d="M1112.7,526.2"/>
			<path id="Trazado_211" class="st1" d="M1112.9,525.6l-0.2,83l12.4-2.2l0.5-58.7c0,0,8.6-18.8,25.8-15.6c3.8,1.1,8.1,2.2,8.6,18.8
				v51.1l12.9-2.2v-54.3c0,0,1.1-19.9-11.3-24.8c-5.9-2.2-22.6-4.8-36.1,13.5l-0.3-10.4"/>
			<path id="Trazado_212" class="st1" d="M1118.9,521.3c0,0,15-13.6,30.9-6.9l13.9,7.5"/>
			<path id="Trazado_213" class="st1" d="M1100.6,518.9l0.2,83.2l11.8,6.5"/>
			<path id="Trazado_214" class="st1" d="M1146.2,531.9c0.9,2.9,1.4,6,1.4,9.1c0,0.5,0.1,54.2,0.1,54.2l12.3,7.1"/>
			<g id="Grupo_330" transform="translate(1099.173 516.551)">
				<path id="Trazado_215" class="st2" d="M13.7,9.7L0.4,2.4L13.8,0l13.2,7.4L13.7,9.7z"/>
			</g>
		</g>
	</g>
</g>
</svg>
