<?xml version="1.0" encoding="utf-8"?>
<!-- Generator: Adobe Illustrator 24.0.1, SVG Export Plug-In . SVG Version: 6.00 Build 0)  -->
<svg version="1.1" id="Capa_1" xmlns="http://www.w3.org/2000/svg" xmlns:xlink="http://www.w3.org/1999/xlink" x="0px" y="0px"
	 viewBox="0 0 160 160" style="enable-background:new 0 0 160 160;" xml:space="preserve">
<style type="text/css">
	.st0{fill:none;stroke:#707070;stroke-width:3;stroke-miterlimit:10;}
	.st1{fill:none;stroke:#FB2626;stroke-width:3;stroke-miterlimit:10;}
	.st2{fill:none;stroke:#FB2626;stroke-width:3;stroke-linecap:round;stroke-miterlimit:10;}
</style>
<g id="Grupo_465" transform="translate(-238 -4354)">
	<g id="Grupo_336" transform="translate(-1427.025 3628.13)">
		<line id="Línea_5" class="st0" x1="1731" y1="768" x2="1764.4" y2="768"/>
		<path id="Trazado_220" class="st0" d="M1731,768"/>
		<path id="Trazado_221" class="st0" d="M1773.1,768h5.7c1.2,0,2.2,1,2.2,2.2v75.3c0,1.2-1,2.2-2.2,2.2h-62.8c-1.2,0-2.2-1-2.2-2.2
			v-75.3c0-1.2,1-2.2,2.2-2.2h6.2"/>
		<path id="Trazado_222" class="st1" d="M1753.2,785.3l-13.8,23.3h27L1753.2,785.3z"/>
		<path id="Trazado_223" class="st1" d="M1743,801.8l-4.7-8.4l-9,15.3h9.7"/>
		<line id="Línea_6" class="st2" x1="1729.9" y1="821.2" x2="1765.4" y2="821.2"/>
		<line id="Línea_7" class="st2" x1="1739" y1="829.9" x2="1756.2" y2="829.9"/>
		<path id="Rectángulo_1092" class="st0" d="M1724.8,763.7h3.9c1.5,0,2.7,1.2,2.7,2.7v3.5c0,1.5-1.2,2.7-2.7,2.7h-3.9
			c-1.5,0-2.7-1.2-2.7-2.7v-3.5C1722,764.9,1723.3,763.7,1724.8,763.7z"/>
		<line id="Línea_8" class="st0" x1="1726.7" y1="755.5" x2="1726.7" y2="763.7"/>
		<path id="Rectángulo_1093" class="st0" d="M1766.8,763.7h3.9c1.5,0,2.7,1.2,2.7,2.7v3.5c0,1.5-1.2,2.7-2.7,2.7h-3.9
			c-1.5,0-2.7-1.2-2.7-2.7v-3.5C1764.1,764.9,1765.3,763.7,1766.8,763.7z"/>
		<line id="Línea_9" class="st0" x1="1768.8" y1="755.5" x2="1768.8" y2="763.7"/>
	</g>
</g>
</svg>
