<?xml version="1.0" encoding="utf-8"?>
<!-- Generator: Adobe Illustrator 24.0.1, SVG Export Plug-In . SVG Version: 6.00 Build 0)  -->
<svg version="1.1" id="Capa_1" xmlns="http://www.w3.org/2000/svg" xmlns:xlink="http://www.w3.org/1999/xlink" x="0px" y="0px"
	 viewBox="0 0 160 160" style="enable-background:new 0 0 160 160;" xml:space="preserve">
<style type="text/css">
	.st0{fill:none;stroke:#6A6A6A;stroke-width:2;}
	.st1{fill:none;}
	.st2{fill:#FB2626;}
	.st3{fill:none;stroke:#FB2626;stroke-width:2;}
</style>
<g id="Grupo_469" transform="translate(802 -4354)">
	<g id="Grupo_329" transform="translate(-3697.425 3830.656)">
		<path id="Trazado_200" class="st0" d="M2937.2,575.9h77.1"/>
		<path id="Trazado_201" class="st0" d="M2937.2,584.1h77.1"/>
		<path id="Trazado_202" class="st0" d="M2937.2,565.6h77.1"/>
		<path id="Trazado_203" class="st0" d="M2954,621.5h43.5"/>
		<path id="Trazado_204" class="st0" d="M2997.5,608.1v35.7"/>
		<path id="Trazado_207" class="st0" d="M2951.2,608.1v35.7"/>
		<path id="Trazado_209" class="st0" d="M2954.3,608.1v35.7"/>
		<path id="Trazado_205" class="st0" d="M3000.8,608.1v35.7"/>
		<path id="Trazado_198" class="st0" d="M2936.8,561.9c-0.5,0.5-3.1,2.9-3.2,3c-0.1,0.1-0.1,0.3-0.2,0.4c0,0-3.5,18.9-3.7,19.9
			s0.5,1,0.5,1s5.7,0,6.4,0s0.6-1.2,0.6-1.2v-22.8C2937.3,562.3,2937.3,561.4,2936.8,561.9z"/>
		<path id="Trazado_216" class="st0" d="M3014.8,561.9c0.5,0.5,3.2,2.9,3.4,3c0.1,0.1,0.2,0.3,0.2,0.4c0,0,3.6,18.9,3.9,19.9
			s-0.6,1-0.6,1s-6,0-6.7,0s-0.7-1.2-0.7-1.2v-22.8C3014.4,562.3,3014.3,561.4,3014.8,561.9z"/>
		<g id="Rectángulo_755" transform="translate(2936.425 643.344)">
			<path class="st1" d="M4,0h71c2.2,0,4,1.8,4,4l0,0c0,2.2-1.8,4-4,4H4C1.8,8,0,6.2,0,4l0,0C0,1.8,1.8,0,4,0z"/>
			<path class="st0" d="M4,1h71c1.7,0,3,1.3,3,3l0,0c0,1.7-1.3,3-3,3H4C2.3,7,1,5.7,1,4l0,0C1,2.3,2.3,1,4,1z"/>
		</g>
		<g id="Rectángulo_756" transform="translate(2945.425 574.344)">
			<path class="st2" d="M1,0h58c0.6,0,1,0.4,1,1v33c0,0.6-0.4,1-1,1H1c-0.6,0-1-0.4-1-1V1C0,0.4,0.4,0,1,0z"/>
			<rect x="1" y="1" class="st3" width="58" height="33"/>
		</g>
	</g>
</g>
</svg>
