<?xml version="1.0" encoding="utf-8"?>
<!-- Generator: Adobe Illustrator 24.0.1, SVG Export Plug-In . SVG Version: 6.00 Build 0)  -->
<svg version="1.1" id="Capa_1" xmlns="http://www.w3.org/2000/svg" xmlns:xlink="http://www.w3.org/1999/xlink" x="0px" y="0px"
	 viewBox="0 0 160 160" style="enable-background:new 0 0 160 160;" xml:space="preserve">
<style type="text/css">
	.st0{fill:none;stroke:#707070;stroke-width:3;stroke-miterlimit:10;}
	.st1{fill:#FB2626;}
</style>
<g id="Grupo_467" transform="translate(282 -4354)">
	<g id="Grupo_333" transform="translate(-1260.534 3565.458)">
		<path id="Rectángulo_757" class="st0" d="M1104,900.2h-87.6c-2.1,0-3.7-1.7-3.7-3.7v-60c0-2.1,1.7-3.7,3.7-3.7h87.6
			c2.1,0,3.7,1.7,3.7,3.7v60C1107.7,898.5,1106,900.2,1104,900.2z"/>
		<path id="Rectángulo_759" class="st1" d="M1026.5,906h-1.6c-0.5,0-0.9-0.4-0.9-0.9v-9.8c0-0.5,0.4-0.9,0.9-0.9h1.6
			c0.5,0,0.9,0.4,0.9,0.9v9.8C1027.5,905.6,1027.1,906,1026.5,906z"/>
		<path id="Rectángulo_1094" class="st1" d="M1096.5,906h-1.6c-0.5,0-0.9-0.4-0.9-0.9v-9.8c0-0.5,0.4-0.9,0.9-0.9h1.6
			c0.5,0,0.9,0.4,0.9,0.9v9.8C1097.5,905.6,1097.1,906,1096.5,906z"/>
	</g>
</g>
</svg>
