<?xml version="1.0" encoding="utf-8"?>
<!-- Generator: Adobe Illustrator 24.0.1, SVG Export Plug-In . SVG Version: 6.00 Build 0)  -->
<svg version="1.1" id="Capa_1" xmlns="http://www.w3.org/2000/svg" xmlns:xlink="http://www.w3.org/1999/xlink" x="0px" y="0px"
	 viewBox="0 0 160 160" style="enable-background:new 0 0 160 160;" xml:space="preserve">
<style type="text/css">
	.st0{fill:none;stroke:#707070;stroke-width:3;stroke-miterlimit:10;}
	.st1{fill:none;stroke:#707070;stroke-width:3;stroke-linecap:round;stroke-miterlimit:10;}
	.st2{fill:#FB2626;}
	.st3{fill:none;stroke:#707070;}
</style>
<g id="Grupo_466" transform="translate(22 -4354)">
	<g id="Grupo_335" transform="translate(-1170.271 2256.973)">
		<g id="Grupo_334" transform="translate(1181.299 2148.691)">
			<path id="Trazado_217" class="st0" d="M89.5,48.8h4.7V32l-4.9-18.8c0,0-2.9-7.9-10-7.9c-2.4,0-21.1-0.2-21.1-0.2"/>
			<line id="Línea_1" class="st0" x1="25.9" y1="48.8" x2="71.9" y2="48.8"/>
			<path id="Trazado_218" class="st0" d="M57.6,48.8V2.2c0-1.2-1-2.2-2.2-2.2l0,0H1.5C0.7,0,0,0.7,0,1.5c0,0,0,0,0,0v47.3h9.3"/>
			<line id="Línea_2" class="st0" x1="0.5" y1="35.1" x2="56.7" y2="35.1"/>
			<line id="Línea_3" class="st0" x1="58.5" y1="32" x2="93.1" y2="32"/>
			<line id="Línea_4" class="st1" x1="62.6" y1="38" x2="68.6" y2="38"/>
			<path id="Trazado_219" class="st0" d="M62.8,13.5v9.6c0,1.5,1.2,2.6,2.6,2.6l0,0h9"/>
			<circle id="Elipse_49" class="st0" cx="17.6" cy="49.6" r="8.3"/>
			<circle id="Elipse_50" class="st0" cx="80.2" cy="49.6" r="8.3"/>
		</g>
		<g id="Rectángulo_1091" transform="translate(1187.271 2155.027)">
			<rect class="st2" width="45" height="23"/>
			<rect x="0.5" y="0.5" class="st3" width="44" height="22"/>
		</g>
	</g>
</g>
</svg>
